# xmcd
#
# Track frame offsets:
#	150
#	16165
#	32280
#	38749
#	55090
#	78519
#	110463
#	125986
#	156116
#	175764
#	198470
#	213801
#	253132
#	275916
#	307745
#
# Disc length: 4445 seconds
#
# Revision: 1
# Processed by: cddbd v1.5.2PL0 Copyright (c) Steve Scherf et al.
# Submitted via: audiograbber 1.83.01
#
DISCID=c5115b0f
DTITLE=Grateful Dead - 70-11-06A Capitol Theatre, Port Chester NY
DYEAR=1900
DGENRE=
TTITLE0=Candyman (tk1)
TTITLE1=Candyman (tk2)
TTITLE2=Uncle John's Band (tk1)
TTITLE3=Uncle John's Band (tk2)
TTITLE4=Attics Of My Life
TTITLE5=Drums and Bass Tuning
TTITLE6=Don't Ease Me In
TTITLE7=Deep Elem Blues
TTITLE8=Dark Hollow
TTITLE9=Friend Of The Devil
TTITLE10=The Rub
TTITLE11=Black Peter
TTITLE12=El Paso
TTITLE13=Brokedown Palace
TTITLE14=Uncle John's Band
EXTD=
EXTT0=
EXTT1=
EXTT2=
EXTT3=
EXTT4=
EXTT5=
EXTT6=
EXTT7=
EXTT8=
EXTT9=
EXTT10=
EXTT11=
EXTT12=
EXTT13=
EXTT14=
PLAYORDER=
